<svg xmlns="http://www.w3.org/2000/svg" viewBox="0 0 800 500" fill="none">
  <rect width="800" height="500" fill="#0a0c10"/>
  <rect width="800" height="500" fill="url(#ecoBg)"/>
  <rect x="0" y="320" width="800" height="180" fill="#0f131c" opacity="0.9"/>
  <rect x="60" y="60" width="320" height="12" rx="6" fill="#ff2d92" opacity="0.6"/>
  <rect x="60" y="90" width="480" height="36" rx="4" fill="#f0f4fc" opacity="0.9"/>
  <rect x="60" y="140" width="400" height="20" rx="4" fill="#7d8aa3" opacity="0.5"/>
  <rect x="60" y="170" width="360" height="20" rx="4" fill="#7d8aa3" opacity="0.35"/>
  <rect x="60" y="220" width="140" height="44" rx="8" fill="#ff2d92" opacity="0.25" stroke="#ff2d92" stroke-opacity="0.5"/>
  <rect x="60" y="234" width="80" height="8" rx="4" fill="#ff2d92" opacity="0.8"/>
  <rect x="520" y="80" width="220" height="280" rx="4" fill="#1a2233" opacity="0.5"/>
  <rect x="540" y="100" width="180" height="120" rx="2" fill="#131824"/>
  <rect x="540" y="240" width="80" height="100" rx="2" fill="#131824"/>
  <rect x="640" y="240" width="80" height="100" rx="2" fill="#131824"/>
  <rect x="540" y="360" width="180" height="4" rx="2" fill="#ff2d92" opacity="0.3"/>
  <rect x="60" y="340" width="160" height="100" rx="8" fill="#131824" stroke="#1a2233"/>
  <rect x="76" y="356" width="60" height="6" rx="3" fill="#ff2d92" opacity="0.5"/>
  <rect x="76" y="372" width="128" height="8" rx="4" fill="#f0f4fc" opacity="0.6"/>
  <rect x="76" y="390" width="100" height="6" rx="3" fill="#7d8aa3" opacity="0.4"/>
  <rect x="76" y="410" width="60" height="20" rx="4" fill="#ff2d92" opacity="0.2"/>
  <rect x="240" y="340" width="160" height="100" rx="8" fill="#131824" stroke="#1a2233"/>
  <rect x="256" y="356" width="60" height="6" rx="3" fill="#ff2d92" opacity="0.5"/>
  <rect x="256" y="372" width="128" height="8" rx="4" fill="#f0f4fc" opacity="0.6"/>
  <rect x="256" y="390" width="100" height="6" rx="3" fill="#7d8aa3" opacity="0.4"/>
  <rect x="256" y="410" width="60" height="20" rx="4" fill="#ff2d92" opacity="0.2"/>
  <rect x="420" y="340" width="160" height="100" rx="8" fill="#131824" stroke="#1a2233"/>
  <rect x="436" y="356" width="60" height="6" rx="3" fill="#ff2d92" opacity="0.5"/>
  <rect x="436" y="372" width="128" height="8" rx="4" fill="#f0f4fc" opacity="0.6"/>
  <rect x="436" y="390" width="100" height="6" rx="3" fill="#7d8aa3" opacity="0.4"/>
  <rect x="436" y="410" width="60" height="20" rx="4" fill="#ff2d92" opacity="0.2"/>
  <rect x="600" y="340" width="140" height="100" rx="8" fill="#131824" stroke="#1a2233"/>
  <rect x="616" y="356" width="50" height="6" rx="3" fill="#ff2d92" opacity="0.5"/>
  <rect x="616" y="372" width="108" height="8" rx="4" fill="#f0f4fc" opacity="0.6"/>
  <rect x="616" y="390" width="80" height="6" rx="3" fill="#7d8aa3" opacity="0.4"/>
  <defs>
    <linearGradient id="ecoBg" x1="0" y1="0" x2="800" y2="500">
      <stop stop-color="#1a1020"/>
      <stop offset="0.5" stop-color="#0f131c"/>
      <stop offset="1" stop-color="#0a0c10"/>
    </linearGradient>
  </defs>
</svg>
