<svg xmlns="http://www.w3.org/2000/svg" viewBox="0 0 800 500" fill="none">
  <rect width="800" height="500" fill="#0c0a08"/>
  <rect width="800" height="500" fill="url(#warmBg)"/>
  <rect x="60" y="50" width="200" height="8" rx="4" fill="#d4a574" opacity="0.5"/>
  <rect x="60" y="80" width="360" height="40" rx="4" fill="#f5e6d3" opacity="0.85"/>
  <rect x="60" y="135" width="300" height="16" rx="4" fill="#a08060" opacity="0.4"/>
  <rect x="60" y="165" width="260" height="16" rx="4" fill="#a08060" opacity="0.3"/>
  <rect x="60" y="210" width="120" height="40" rx="8" fill="#c87840" opacity="0.3" stroke="#d4a574" stroke-opacity="0.5"/>
  <rect x="76" y="224" width="70" height="8" rx="4" fill="#f5e6d3" opacity="0.7"/>
  <ellipse cx="580" cy="200" rx="120" ry="140" fill="#c87840" opacity="0.15"/>
  <ellipse cx="580" cy="220" rx="80" ry="100" fill="#d4a574" opacity="0.2"/>
  <path d="M540 280 Q580 180 620 280" stroke="#e8a060" stroke-width="3" fill="none" opacity="0.4"/>
  <rect x="60" y="300" width="220" height="160" rx="10" fill="#13100e" stroke="#2a2018"/>
  <rect x="76" y="316" width="80" height="6" rx="3" fill="#d4a574" opacity="0.5"/>
  <rect x="76" y="332" width="188" height="80" rx="6" fill="#1a1510"/>
  <rect x="76" y="424" width="100" height="24" rx="6" fill="#c87840" opacity="0.25"/>
  <rect x="300" y="300" width="220" height="160" rx="10" fill="#13100e" stroke="#2a2018"/>
  <rect x="316" y="316" width="80" height="6" rx="3" fill="#d4a574" opacity="0.5"/>
  <rect x="316" y="332" width="188" height="80" rx="6" fill="#1a1510"/>
  <rect x="316" y="424" width="100" height="24" rx="6" fill="#c87840" opacity="0.25"/>
  <rect x="540" y="300" width="200" height="160" rx="10" fill="#13100e" stroke="#2a2018"/>
  <rect x="556" y="316" width="80" height="6" rx="3" fill="#d4a574" opacity="0.5"/>
  <rect x="556" y="332" width="168" height="80" rx="6" fill="#1a1510"/>
  <rect x="556" y="424" width="90" height="24" rx="6" fill="#c87840" opacity="0.25"/>
  <circle cx="700" cy="80" r="40" fill="#e8a060" opacity="0.08"/>
  <defs>
    <linearGradient id="warmBg" x1="0" y1="0" x2="800" y2="500">
      <stop stop-color="#1a1208"/>
      <stop offset="1" stop-color="#0c0a08"/>
    </linearGradient>
  </defs>
</svg>
