<svg xmlns="http://www.w3.org/2000/svg" viewBox="0 0 800 500" fill="none">
  <rect width="800" height="500" fill="#07090f"/>
  <rect x="280" y="30" width="240" height="440" rx="28" fill="#0f131c" stroke="#1a2233" stroke-width="2"/>
  <rect x="370" y="50" width="60" height="6" rx="3" fill="#1a2233"/>
  <rect x="300" y="80" width="200" height="56" rx="12" fill="#131824"/>
  <circle cx="328" cy="108" r="16" fill="#9945ff" opacity="0.3"/>
  <rect x="352" y="100" width="80" height="8" rx="4" fill="#f0f4fc" opacity="0.8"/>
  <rect x="352" y="116" width="50" height="6" rx="3" fill="#7d8aa3" opacity="0.5"/>
  <rect x="300" y="150" width="200" height="100" rx="10" fill="#0b0e14" stroke="#9945ff" stroke-opacity="0.2"/>
  <rect x="316" y="166" width="60" height="6" rx="3" fill="#9945ff" opacity="0.6"/>
  <rect x="316" y="182" width="168" height="20" rx="4" fill="#1a2233"/>
  <rect x="316" y="210" width="120" height="20" rx="4" fill="#1a2233"/>
  <rect x="316" y="238" width="80" height="6" rx="3" fill="#28c840" opacity="0.7"/>
  <rect x="300" y="262" width="96" height="72" rx="8" fill="#9945ff" opacity="0.08" stroke="#9945ff" stroke-opacity="0.2"/>
  <rect x="308" y="274" width="40" height="6" rx="3" fill="#7d8aa3" opacity="0.4"/>
  <rect x="308" y="288" width="72" height="10" rx="4" fill="#9945ff" opacity="0.4"/>
  <rect x="308" y="306" width="50" height="6" rx="3" fill="#28c840" opacity="0.5"/>
  <rect x="404" y="262" width="96" height="72" rx="8" fill="#00f2fe" opacity="0.06" stroke="#00f2fe" stroke-opacity="0.15"/>
  <rect x="412" y="274" width="40" height="6" rx="3" fill="#7d8aa3" opacity="0.4"/>
  <rect x="412" y="288" width="72" height="10" rx="4" fill="#00f2fe" opacity="0.35"/>
  <rect x="412" y="306" width="50" height="6" rx="3" fill="#ff5f57" opacity="0.5"/>
  <rect x="300" y="346" width="200" height="100" rx="10" fill="#131824"/>
  <rect x="316" y="362" width="168" height="8" rx="4" fill="#1a2233"/>
  <rect x="316" y="378" width="140" height="8" rx="4" fill="#1a2233"/>
  <rect x="316" y="394" width="155" height="8" rx="4" fill="#1a2233"/>
  <rect x="316" y="410" width="100" height="8" rx="4" fill="#1a2233"/>
  <rect x="300" y="456" width="200" height="4" rx="2" fill="#1a2233"/>
</svg>
