<svg xmlns="http://www.w3.org/2000/svg" viewBox="0 0 800 500" fill="none">
  <rect width="800" height="500" fill="#07090f"/>
  <rect x="40" y="40" width="720" height="420" rx="12" fill="#0f131c" stroke="#1a2233" stroke-width="1"/>
  <rect x="40" y="40" width="720" height="48" rx="12" fill="#131824"/>
  <rect x="40" y="76" width="720" height="12" fill="#131824"/>
  <circle cx="68" cy="64" r="6" fill="#ff5f57"/>
  <circle cx="88" cy="64" r="6" fill="#febc2e"/>
  <circle cx="108" cy="64" r="6" fill="#28c840"/>
  <rect x="320" y="56" width="160" height="16" rx="8" fill="#1a2233"/>
  <rect x="80" y="110" width="200" height="320" rx="8" fill="#0b0e14" stroke="#1a2233"/>
  <rect x="100" y="130" width="80" height="10" rx="4" fill="#00f2fe" opacity="0.8"/>
  <rect x="100" y="155" width="160" height="8" rx="4" fill="#1a2233"/>
  <rect x="100" y="175" width="140" height="8" rx="4" fill="#1a2233"/>
  <rect x="100" y="210" width="160" height="48" rx="8" fill="#00f2fe" opacity="0.1" stroke="#00f2fe" stroke-opacity="0.3"/>
  <rect x="100" y="275" width="160" height="48" rx="8" fill="#9945ff" opacity="0.08" stroke="#9945ff" stroke-opacity="0.25"/>
  <rect x="100" y="340" width="160" height="48" rx="8" fill="#1a2233"/>
  <rect x="300" y="110" width="440" height="160" rx="8" fill="#0b0e14" stroke="#1a2233"/>
  <path d="M320 230 L380 180 L440 200 L500 140 L560 160 L620 120 L700 150" stroke="#00f2fe" stroke-width="2" stroke-linecap="round" stroke-linejoin="round"/>
  <path d="M320 230 L380 180 L440 200 L500 140 L560 160 L620 120 L700 150 L700 250 L320 250 Z" fill="url(#cyanGrad)" opacity="0.15"/>
  <rect x="300" y="290" width="210" height="140" rx="8" fill="#0b0e14" stroke="#1a2233"/>
  <rect x="320" y="310" width="100" height="8" rx="4" fill="#7d8aa3" opacity="0.5"/>
  <rect x="320" y="330" width="170" height="24" rx="6" fill="#00f2fe" opacity="0.15"/>
  <rect x="320" y="370" width="80" height="32" rx="6" fill="#00f2fe" opacity="0.25"/>
  <rect x="530" y="290" width="210" height="140" rx="8" fill="#0b0e14" stroke="#1a2233"/>
  <rect x="550" y="310" width="80" height="8" rx="4" fill="#7d8aa3" opacity="0.5"/>
  <circle cx="635" cy="370" r="30" stroke="#9945ff" stroke-width="2" stroke-opacity="0.5"/>
  <circle cx="635" cy="370" r="18" fill="#9945ff" opacity="0.2"/>
  <defs>
    <linearGradient id="cyanGrad" x1="320" y1="120" x2="700" y2="250">
      <stop stop-color="#00f2fe"/>
      <stop offset="1" stop-color="#9945ff" stop-opacity="0"/>
    </linearGradient>
  </defs>
</svg>
